<?xml version="1.0" standalone="no"?>
<svg width="1056" height="816" xmlns="http://www.w3.org/2000/svg" id="svgvm0"><g transform="translate(5,5)" style="font-family: sans-serif;"><g transform="translate(0,1)"><g><g class="tactic initial-access" transform="translate(0, 0)"><g class="techniques"><g class="technique T1190" transform="translate(0, 100.75)"><rect class="cell" height="100.75" width="95.0909090909091" fill="#c6dbef" stroke="#6B7279"/><polygon class="sidebar" transform="translate(0, 100.75)" points="0,0 12,0 12,0" fill="#6B7279" visibility="hidden"/><text font-size="7.015656565656565" fill="black"><tspan x="4" y="38.20833333333333">Exploit</tspan><tspan x="4" y="52.875">Public-Facing</tspan><tspan x="4" y="67.54166666666666">Application</tspan></text></g></g><g class="subtechniques"/><g class="tactic-label"><text font-size="10.523484848484848" fill="black" font-weight="bold"><tspan text-anchor="middle" x="47.54545454545455" y="46.625">Initial</tspan><tspan text-anchor="middle" x="47.54545454545455" y="61.125">Access</tspan></text></g></g><g class="tactic execution" transform="translate(95.0909090909091, 0)"><g class="techniques"><g class="technique T1059" transform="translate(0, 100.75)"><rect class="cell" height="100.75" width="95.0909090909091" fill="#c6dbef" stroke="#6B7279"/><polygon class="sidebar" transform="translate(0, 100.75)" points="0,0 12,0 12,12" fill="#6B7279" visibility="visible"/><text font-size="7.015656565656565" fill="black"><tspan x="4" y="39.20833333333333">Command and</tspan><tspan x="4" y="53.875">Scripting</tspan><tspan x="4" y="68.54166666666666">Interpreter</tspan></text></g><g class="technique T1053" transform="translate(0, 302.25)"><rect class="cell" height="100.75" width="95.0909090909091" fill="#c6dbef" stroke="#6B7279"/><polygon class="sidebar" transform="translate(0, 100.75)" points="0,0 12,0 12,12" fill="#6B7279" visibility="visible"/><text font-size="7.015656565656565" fill="black"><tspan x="4" y="46.625">Scheduled</tspan><tspan x="4" y="61.125">Task/Job</tspan></text></g><g class="technique T1204" transform="translate(0, 503.75)"><rect class="cell" height="100.75" width="95.0909090909091" fill="#c6dbef" stroke="#6B7279"/><polygon class="sidebar" transform="translate(0, 100.75)" points="0,0 12,0 12,12" fill="#6B7279" visibility="visible"/><text font-size="7.015656565656565" fill="black"><tspan x="4" y="46.625">User</tspan><tspan x="4" y="61.125">Execution</tspan></text></g></g><g class="subtechniques"><g class="subtechnique T1059.001" transform="translate(15, 201.5)"><rect class="cell" height="100.75" width="80.0909090909091" fill="#c6dbef" stroke="#6B7279"/><rect class="cell" height="100.75" width="3" transform="translate(-3, 0)" fill="#6B7279" stroke="#6B7279"/><text font-size="7.015656565656565" fill="black"><tspan x="4" y="53.875">PowerShell</tspan></text></g><g class="subtechnique T1053.005" transform="translate(15, 403)"><rect class="cell" height="100.75" width="80.0909090909091" fill="#c6dbef" stroke="#6B7279"/><rect class="cell" height="100.75" width="3" transform="translate(-3, 0)" fill="#6B7279" stroke="#6B7279"/><text font-size="7.015656565656565" fill="black"><tspan x="4" y="46.625">Scheduled</tspan><tspan x="4" y="61.125">Task</tspan></text></g><g class="subtechnique T1204.002" transform="translate(15, 604.5)"><rect class="cell" height="100.75" width="80.0909090909091" fill="#c6dbef" stroke="#6B7279"/><rect class="cell" height="100.75" width="3" transform="translate(-3, 0)" fill="#6B7279" stroke="#6B7279"/><text font-size="7.015656565656565" fill="black"><tspan x="4" y="46.625">Malicious</tspan><tspan x="4" y="61.125">File</tspan></text></g></g><g class="tactic-label"><text font-size="10.523484848484848" fill="black" font-weight="bold"><tspan text-anchor="middle" x="47.54545454545455" y="53.875">Execution</tspan></text></g></g><g class="tactic persistence" transform="translate(190.1818181818182, 0)"><g class="techniques"><g class="technique T1053" transform="translate(0, 100.75)"><rect class="cell" height="100.75" width="95.0909090909091" fill="#c6dbef" stroke="#6B7279"/><polygon class="sidebar" transform="translate(0, 100.75)" points="0,0 12,0 12,12" fill="#6B7279" visibility="visible"/><text font-size="7.015656565656565" fill="black"><tspan x="4" y="46.625">Scheduled</tspan><tspan x="4" y="61.125">Task/Job</tspan></text></g></g><g class="subtechniques"><g class="subtechnique T1053.005" transform="translate(15, 201.5)"><rect class="cell" height="100.75" width="80.0909090909091" fill="#c6dbef" stroke="#6B7279"/><rect class="cell" height="100.75" width="3" transform="translate(-3, 0)" fill="#6B7279" stroke="#6B7279"/><text font-size="7.015656565656565" fill="black"><tspan x="4" y="46.625">Scheduled</tspan><tspan x="4" y="61.125">Task</tspan></text></g></g><g class="tactic-label"><text font-size="10.523484848484848" fill="black" font-weight="bold"><tspan text-anchor="middle" x="47.54545454545455" y="53.875">Persistence</tspan></text></g></g><g class="tactic privilege-escalation" transform="translate(285.27272727272725, 0)"><g class="techniques"><g class="technique T1053" transform="translate(0, 100.75)"><rect class="cell" height="100.75" width="95.0909090909091" fill="#c6dbef" stroke="#6B7279"/><polygon class="sidebar" transform="translate(0, 100.75)" points="0,0 12,0 12,12" fill="#6B7279" visibility="visible"/><text font-size="7.015656565656565" fill="black"><tspan x="4" y="46.625">Scheduled</tspan><tspan x="4" y="61.125">Task/Job</tspan></text></g></g><g class="subtechniques"><g class="subtechnique T1053.005" transform="translate(15, 201.5)"><rect class="cell" height="100.75" width="80.0909090909091" fill="#c6dbef" stroke="#6B7279"/><rect class="cell" height="100.75" width="3" transform="translate(-3, 0)" fill="#6B7279" stroke="#6B7279"/><text font-size="7.015656565656565" fill="black"><tspan x="4" y="46.625">Scheduled</tspan><tspan x="4" y="61.125">Task</tspan></text></g></g><g class="tactic-label"><text font-size="10.523484848484848" fill="black" font-weight="bold"><tspan text-anchor="middle" x="47.54545454545455" y="46.625">Privilege</tspan><tspan text-anchor="middle" x="47.54545454545455" y="61.125">Escalation</tspan></text></g></g><g class="tactic defense-evasion" transform="translate(380.3636363636364, 0)"><g class="techniques"><g class="technique T1140" transform="translate(0, 100.75)"><rect class="cell" height="100.75" width="95.0909090909091" fill="#c6dbef" stroke="#6B7279"/><polygon class="sidebar" transform="translate(0, 100.75)" points="0,0 12,0 12,0" fill="#6B7279" visibility="hidden"/><text font-size="7.015656565656565" fill="black"><tspan x="4" y="38.20833333333333">Deobfuscate/Decode</tspan><tspan x="4" y="52.875">Files</tspan><tspan x="4" y="67.54166666666666">or Information</tspan></text></g><g class="technique T1564" transform="translate(0, 201.5)"><rect class="cell" height="100.75" width="95.0909090909091" fill="#c6dbef" stroke="#6B7279"/><polygon class="sidebar" transform="translate(0, 100.75)" points="0,0 12,0 12,12" fill="#6B7279" visibility="visible"/><text font-size="7.015656565656565" fill="black"><tspan x="4" y="46.625">Hide</tspan><tspan x="4" y="61.125">Artifacts</tspan></text></g><g class="technique T1562" transform="translate(0, 503.75)"><rect class="cell" height="100.75" width="95.0909090909091" fill="#c6dbef" stroke="#6B7279"/><polygon class="sidebar" transform="translate(0, 100.75)" points="0,0 12,0 12,12" fill="#6B7279" visibility="visible"/><text font-size="7.015656565656565" fill="black"><tspan x="4" y="46.625">Impair</tspan><tspan x="4" y="61.125">Defenses</tspan></text></g><g class="technique T1027" transform="translate(0, 705.25)"><rect class="cell" height="100.75" width="95.0909090909091" fill="#c6dbef" stroke="#6B7279"/><polygon class="sidebar" transform="translate(0, 100.75)" points="0,0 12,0 12,0" fill="#6B7279" visibility="hidden"/><text font-size="7.015656565656565" fill="black"><tspan x="4" y="39.20833333333333">Obfuscated</tspan><tspan x="4" y="53.875">Files or</tspan><tspan x="4" y="68.54166666666666">Information</tspan></text></g></g><g class="subtechniques"><g class="subtechnique T1564.001" transform="translate(15, 302.25)"><rect class="cell" height="100.75" width="80.0909090909091" fill="#c6dbef" stroke="#6B7279"/><rect class="cell" height="100.75" width="3" transform="translate(-3, 0)" fill="#6B7279" stroke="#6B7279"/><text font-size="7.015656565656565" fill="black"><tspan x="4" y="38.20833333333333">Hidden</tspan><tspan x="4" y="52.875">Files and</tspan><tspan x="4" y="67.54166666666666">Directories</tspan></text></g><g class="subtechnique T1564.003" transform="translate(15, 403)"><rect class="cell" height="100.75" width="80.0909090909091" fill="#c6dbef" stroke="#6B7279"/><rect class="cell" height="100.75" width="3" transform="translate(-3, 0)" fill="#6B7279" stroke="#6B7279"/><text font-size="7.015656565656565" fill="black"><tspan x="4" y="46.625">Hidden</tspan><tspan x="4" y="61.125">Window</tspan></text></g><g class="subtechnique T1562.001" transform="translate(15, 604.5)"><rect class="cell" height="100.75" width="80.0909090909091" fill="#c6dbef" stroke="#6B7279"/><rect class="cell" height="100.75" width="3" transform="translate(-3, 0)" fill="#6B7279" stroke="#6B7279"/><text font-size="7.015656565656565" fill="black"><tspan x="4" y="31.75">Disable</tspan><tspan x="4" y="46.5">or</tspan><tspan x="4" y="61.25">Modify</tspan><tspan x="4" y="76">Tools</tspan></text></g></g><g class="tactic-label"><text font-size="10.523484848484848" fill="black" font-weight="bold"><tspan text-anchor="middle" x="47.54545454545455" y="46.625">Defense</tspan><tspan text-anchor="middle" x="47.54545454545455" y="61.125">Evasion</tspan></text></g></g><g class="tactic discovery" transform="translate(475.4545454545455, 0)"><g class="techniques"><g class="technique T1010" transform="translate(0, 100.75)"><rect class="cell" height="100.75" width="95.0909090909091" fill="#c6dbef" stroke="#6B7279"/><polygon class="sidebar" transform="translate(0, 100.75)" points="0,0 12,0 12,0" fill="#6B7279" visibility="hidden"/><text font-size="7.015656565656565" fill="black"><tspan x="4" y="39.20833333333333">Application</tspan><tspan x="4" y="53.875">Window</tspan><tspan x="4" y="68.54166666666666">Discovery</tspan></text></g><g class="technique T1083" transform="translate(0, 201.5)"><rect class="cell" height="100.75" width="95.0909090909091" fill="#c6dbef" stroke="#6B7279"/><polygon class="sidebar" transform="translate(0, 100.75)" points="0,0 12,0 12,0" fill="#6B7279" visibility="hidden"/><text font-size="7.015656565656565" fill="black"><tspan x="4" y="39.20833333333333">File and</tspan><tspan x="4" y="53.875">Directory</tspan><tspan x="4" y="68.54166666666666">Discovery</tspan></text></g><g class="technique T1057" transform="translate(0, 302.25)"><rect class="cell" height="100.75" width="95.0909090909091" fill="#c6dbef" stroke="#6B7279"/><polygon class="sidebar" transform="translate(0, 100.75)" points="0,0 12,0 12,0" fill="#6B7279" visibility="hidden"/><text font-size="7.015656565656565" fill="black"><tspan x="4" y="46.625">Process</tspan><tspan x="4" y="61.125">Discovery</tspan></text></g><g class="technique T1082" transform="translate(0, 403)"><rect class="cell" height="100.75" width="95.0909090909091" fill="#c6dbef" stroke="#6B7279"/><polygon class="sidebar" transform="translate(0, 100.75)" points="0,0 12,0 12,0" fill="#6B7279" visibility="hidden"/><text font-size="7.015656565656565" fill="black"><tspan x="4" y="39.20833333333333">System</tspan><tspan x="4" y="53.875">Information</tspan><tspan x="4" y="68.54166666666666">Discovery</tspan></text></g></g><g class="subtechniques"/><g class="tactic-label"><text font-size="10.523484848484848" fill="black" font-weight="bold"><tspan text-anchor="middle" x="47.54545454545455" y="53.875">Discovery</tspan></text></g></g><g class="tactic lateral-movement" transform="translate(570.5454545454545, 0)"><g class="techniques"><g class="technique T1021" transform="translate(0, 100.75)"><rect class="cell" height="100.75" width="95.0909090909091" fill="#c6dbef" stroke="#6B7279"/><polygon class="sidebar" transform="translate(0, 100.75)" points="0,0 12,0 12,12" fill="#6B7279" visibility="visible"/><text font-size="7.015656565656565" fill="black"><tspan x="4" y="46.625">Remote</tspan><tspan x="4" y="61.125">Services</tspan></text></g></g><g class="subtechniques"><g class="subtechnique T1021.004" transform="translate(15, 201.5)"><rect class="cell" height="100.75" width="80.0909090909091" fill="#c6dbef" stroke="#6B7279"/><rect class="cell" height="100.75" width="3" transform="translate(-3, 0)" fill="#6B7279" stroke="#6B7279"/><text font-size="7.015656565656565" fill="black"><tspan x="4" y="53.875">SSH</tspan></text></g></g><g class="tactic-label"><text font-size="10.523484848484848" fill="black" font-weight="bold"><tspan text-anchor="middle" x="47.54545454545455" y="46.625">Lateral</tspan><tspan text-anchor="middle" x="47.54545454545455" y="61.125">Movement</tspan></text></g></g><g class="tactic collection" transform="translate(665.6363636363636, 0)"><g class="techniques"><g class="technique T1005" transform="translate(0, 100.75)"><rect class="cell" height="100.75" width="95.0909090909091" fill="#c6dbef" stroke="#6B7279"/><polygon class="sidebar" transform="translate(0, 100.75)" points="0,0 12,0 12,0" fill="#6B7279" visibility="hidden"/><text font-size="7.015656565656565" fill="black"><tspan x="4" y="39.20833333333333">Data</tspan><tspan x="4" y="53.875">from Local</tspan><tspan x="4" y="68.54166666666666">System</tspan></text></g></g><g class="subtechniques"/><g class="tactic-label"><text font-size="10.523484848484848" fill="black" font-weight="bold"><tspan text-anchor="middle" x="47.54545454545455" y="53.875">Collection</tspan></text></g></g><g class="tactic command-and-control" transform="translate(760.7272727272727, 0)"><g class="techniques"><g class="technique T1573" transform="translate(0, 100.75)"><rect class="cell" height="100.75" width="95.0909090909091" fill="#c6dbef" stroke="#6B7279"/><polygon class="sidebar" transform="translate(0, 100.75)" points="0,0 12,0 12,12" fill="#6B7279" visibility="visible"/><text font-size="7.015656565656565" fill="black"><tspan x="4" y="46.625">Encrypted</tspan><tspan x="4" y="61.125">Channel</tspan></text></g><g class="technique T1105" transform="translate(0, 302.25)"><rect class="cell" height="100.75" width="95.0909090909091" fill="#c6dbef" stroke="#6B7279"/><polygon class="sidebar" transform="translate(0, 100.75)" points="0,0 12,0 12,0" fill="#6B7279" visibility="hidden"/><text font-size="7.015656565656565" fill="black"><tspan x="4" y="39.20833333333333">Ingress</tspan><tspan x="4" y="53.875">Tool</tspan><tspan x="4" y="68.54166666666666">Transfer</tspan></text></g></g><g class="subtechniques"><g class="subtechnique T1573.001" transform="translate(15, 201.5)"><rect class="cell" height="100.75" width="80.0909090909091" fill="#c6dbef" stroke="#6B7279"/><rect class="cell" height="100.75" width="3" transform="translate(-3, 0)" fill="#6B7279" stroke="#6B7279"/><text font-size="7.015656565656565" fill="black"><tspan x="4" y="45.625">Symmetric</tspan><tspan x="4" y="60.125">Cryptography</tspan></text></g></g><g class="tactic-label"><text font-size="10.523484848484848" fill="black" font-weight="bold"><tspan text-anchor="middle" x="47.54545454545455" y="39.20833333333333">Command</tspan><tspan text-anchor="middle" x="47.54545454545455" y="53.875">and</tspan><tspan text-anchor="middle" x="47.54545454545455" y="68.54166666666666">Control</tspan></text></g></g><g class="tactic exfiltration" transform="translate(855.8181818181819, 0)"><g class="techniques"><g class="technique T1567" transform="translate(0, 100.75)"><rect class="cell" height="100.75" width="95.0909090909091" fill="#c6dbef" stroke="#6B7279"/><polygon class="sidebar" transform="translate(0, 100.75)" points="0,0 12,0 12,12" fill="#6B7279" visibility="visible"/><text font-size="7.015656565656565" fill="black"><tspan x="4" y="39.20833333333333">Exfiltration</tspan><tspan x="4" y="53.875">Over</tspan><tspan x="4" y="68.54166666666666">Web Service</tspan></text></g></g><g class="subtechniques"><g class="subtechnique T1567.002" transform="translate(15, 201.5)"><rect class="cell" height="100.75" width="80.0909090909091" fill="#c6dbef" stroke="#6B7279"/><rect class="cell" height="100.75" width="3" transform="translate(-3, 0)" fill="#6B7279" stroke="#6B7279"/><text font-size="7.015656565656565" fill="black"><tspan x="4" y="38.20833333333333">Exfiltration</tspan><tspan x="4" y="52.875">to Cloud</tspan><tspan x="4" y="67.54166666666666">Storage</tspan></text></g></g><g class="tactic-label"><text font-size="10.523484848484848" fill="black" font-weight="bold"><tspan text-anchor="middle" x="47.54545454545455" y="53.875">Exfiltration</tspan></text></g></g><g class="tactic impact" transform="translate(950.909090909091, 0)"><g class="techniques"><g class="technique T1486" transform="translate(0, 100.75)"><rect class="cell" height="100.75" width="95.0909090909091" fill="#c6dbef" stroke="#6B7279"/><polygon class="sidebar" transform="translate(0, 100.75)" points="0,0 12,0 12,0" fill="#6B7279" visibility="hidden"/><text font-size="7.015656565656565" fill="black"><tspan x="4" y="39.20833333333333">Data</tspan><tspan x="4" y="53.875">Encrypted</tspan><tspan x="4" y="68.54166666666666">for Impact</tspan></text></g></g><g class="subtechniques"/><g class="tactic-label"><text font-size="10.523484848484848" fill="black" font-weight="bold"><tspan text-anchor="middle" x="47.54545454545455" y="53.875">Impact</tspan></text></g></g></g></g></g></svg>