<?xml version="1.0" standalone="no"?>
<svg width="1056" height="816" xmlns="http://www.w3.org/2000/svg" id="svgvm0"><g transform="translate(5,5)" style="font-family: sans-serif;"><g transform="translate(0,1)"><g><g class="tactic execution" transform="translate(0, 0)"><g class="techniques"><g class="technique T1129" transform="translate(0, 100.75)"><rect class="cell" height="100.75" width="149.42857142857142" fill="#c6dbef" stroke="#6B7279"/><polygon class="sidebar" transform="translate(0, 100.75)" points="0,0 12,0 12,0" fill="#6B7279" visibility="hidden"/><text font-size="9.32142857142857" fill="black"><tspan x="4" y="53.875">Shared Modules</tspan></text></g></g><g class="subtechniques"/><g class="tactic-label"><text font-size="12" fill="black" font-weight="bold"><tspan text-anchor="middle" x="74.71428571428571" y="53.875">Execution</tspan></text></g></g><g class="tactic defense-evasion" transform="translate(149.42857142857142, 0)"><g class="techniques"><g class="technique T1622" transform="translate(0, 100.75)"><rect class="cell" height="100.75" width="149.42857142857142" fill="#c6dbef" stroke="#6B7279"/><polygon class="sidebar" transform="translate(0, 100.75)" points="0,0 12,0 12,0" fill="#6B7279" visibility="hidden"/><text font-size="9.32142857142857" fill="black"><tspan x="4" y="53.875">Debugger Evasion</tspan></text></g><g class="technique T1140" transform="translate(0, 201.5)"><rect class="cell" height="100.75" width="149.42857142857142" fill="#c6dbef" stroke="#6B7279"/><polygon class="sidebar" transform="translate(0, 100.75)" points="0,0 12,0 12,0" fill="#6B7279" visibility="hidden"/><text font-size="9.32142857142857" fill="black"><tspan x="4" y="39.20833333333333">Deobfuscate/Decode</tspan><tspan x="4" y="53.875">Files</tspan><tspan x="4" y="68.54166666666666">or Information</tspan></text></g><g class="technique T1027" transform="translate(0, 302.25)"><rect class="cell" height="100.75" width="149.42857142857142" fill="#c6dbef" stroke="#6B7279"/><polygon class="sidebar" transform="translate(0, 100.75)" points="0,0 12,0 12,0" fill="#6B7279" visibility="hidden"/><text font-size="9.32142857142857" fill="black"><tspan x="4" y="46.625">Obfuscated Files</tspan><tspan x="4" y="61.125">or Information</tspan></text></g><g class="technique T1620" transform="translate(0, 403)"><rect class="cell" height="100.75" width="149.42857142857142" fill="#c6dbef" stroke="#6B7279"/><polygon class="sidebar" transform="translate(0, 100.75)" points="0,0 12,0 12,0" fill="#6B7279" visibility="hidden"/><text font-size="9.32142857142857" fill="black"><tspan x="4" y="46.625">Reflective</tspan><tspan x="4" y="61.125">Code Loading</tspan></text></g><g class="technique T1497" transform="translate(0, 503.75)"><rect class="cell" height="100.75" width="149.42857142857142" fill="#c6dbef" stroke="#6B7279"/><polygon class="sidebar" transform="translate(0, 100.75)" points="0,0 12,0 12,0" fill="#6B7279" visibility="hidden"/><text font-size="9.32142857142857" fill="black"><tspan x="4" y="45.625">Virtualization/Sandbox</tspan><tspan x="4" y="60.125">Evasion</tspan></text></g></g><g class="subtechniques"/><g class="tactic-label"><text font-size="12" fill="black" font-weight="bold"><tspan text-anchor="middle" x="74.71428571428571" y="53.875">Defense Evasion</tspan></text></g></g><g class="tactic credential-access" transform="translate(298.85714285714283, 0)"><g class="techniques"><g class="technique T1555" transform="translate(0, 100.75)"><rect class="cell" height="100.75" width="149.42857142857142" fill="#c6dbef" stroke="#6B7279"/><polygon class="sidebar" transform="translate(0, 100.75)" points="0,0 12,0 12,12" fill="#6B7279" visibility="visible"/><text font-size="9.32142857142857" fill="black"><tspan x="4" y="46.625">Credentials from</tspan><tspan x="4" y="61.125">Password Stores</tspan></text></g><g class="technique T1539" transform="translate(0, 302.25)"><rect class="cell" height="100.75" width="149.42857142857142" fill="#c6dbef" stroke="#6B7279"/><polygon class="sidebar" transform="translate(0, 100.75)" points="0,0 12,0 12,0" fill="#6B7279" visibility="hidden"/><text font-size="9.32142857142857" fill="black"><tspan x="4" y="46.625">Steal Web</tspan><tspan x="4" y="61.125">Session Cookie</tspan></text></g><g class="technique T1552" transform="translate(0, 403)"><rect class="cell" height="100.75" width="149.42857142857142" fill="#c6dbef" stroke="#6B7279"/><polygon class="sidebar" transform="translate(0, 100.75)" points="0,0 12,0 12,12" fill="#6B7279" visibility="visible"/><text font-size="9.32142857142857" fill="black"><tspan x="4" y="46.625">Unsecured</tspan><tspan x="4" y="61.125">Credentials</tspan></text></g></g><g class="subtechniques"><g class="subtechnique T1555.003" transform="translate(15, 201.5)"><rect class="cell" height="100.75" width="134.42857142857142" fill="#c6dbef" stroke="#6B7279"/><rect class="cell" height="100.75" width="3" transform="translate(-3, 0)" fill="#6B7279" stroke="#6B7279"/><text font-size="9.32142857142857" fill="black"><tspan x="4" y="39.20833333333333">Credentials</tspan><tspan x="4" y="53.875">from</tspan><tspan x="4" y="68.54166666666666">Web Browsers</tspan></text></g><g class="subtechnique T1552.001" transform="translate(15, 503.75)"><rect class="cell" height="100.75" width="134.42857142857142" fill="#c6dbef" stroke="#6B7279"/><rect class="cell" height="100.75" width="3" transform="translate(-3, 0)" fill="#6B7279" stroke="#6B7279"/><text font-size="9.32142857142857" fill="black"><tspan x="4" y="46.625">Credentials</tspan><tspan x="4" y="61.125">In Files</tspan></text></g></g><g class="tactic-label"><text font-size="12" fill="black" font-weight="bold"><tspan text-anchor="middle" x="74.71428571428571" y="53.875">Credential Access</tspan></text></g></g><g class="tactic discovery" transform="translate(448.2857142857142, 0)"><g class="techniques"><g class="technique T1087" transform="translate(0, 100.75)"><rect class="cell" height="100.75" width="149.42857142857142" fill="#c6dbef" stroke="#6B7279"/><polygon class="sidebar" transform="translate(0, 100.75)" points="0,0 12,0 12,12" fill="#6B7279" visibility="visible"/><text font-size="9.32142857142857" fill="black"><tspan x="4" y="53.875">Account Discovery</tspan></text></g><g class="technique T1622" transform="translate(0, 302.25)"><rect class="cell" height="100.75" width="149.42857142857142" fill="#c6dbef" stroke="#6B7279"/><polygon class="sidebar" transform="translate(0, 100.75)" points="0,0 12,0 12,0" fill="#6B7279" visibility="hidden"/><text font-size="9.32142857142857" fill="black"><tspan x="4" y="53.875">Debugger Evasion</tspan></text></g><g class="technique T1083" transform="translate(0, 403)"><rect class="cell" height="100.75" width="149.42857142857142" fill="#c6dbef" stroke="#6B7279"/><polygon class="sidebar" transform="translate(0, 100.75)" points="0,0 12,0 12,0" fill="#6B7279" visibility="hidden"/><text font-size="9.32142857142857" fill="black"><tspan x="4" y="39.20833333333333">File</tspan><tspan x="4" y="53.875">and Directory</tspan><tspan x="4" y="68.54166666666666">Discovery</tspan></text></g><g class="technique T1082" transform="translate(0, 503.75)"><rect class="cell" height="100.75" width="149.42857142857142" fill="#c6dbef" stroke="#6B7279"/><polygon class="sidebar" transform="translate(0, 100.75)" points="0,0 12,0 12,0" fill="#6B7279" visibility="hidden"/><text font-size="9.32142857142857" fill="black"><tspan x="4" y="39.20833333333333">System</tspan><tspan x="4" y="53.875">Information</tspan><tspan x="4" y="68.54166666666666">Discovery</tspan></text></g><g class="technique T1033" transform="translate(0, 604.5)"><rect class="cell" height="100.75" width="149.42857142857142" fill="#c6dbef" stroke="#6B7279"/><polygon class="sidebar" transform="translate(0, 100.75)" points="0,0 12,0 12,0" fill="#6B7279" visibility="hidden"/><text font-size="9.32142857142857" fill="black"><tspan x="4" y="46.625">System Owner/User</tspan><tspan x="4" y="61.125">Discovery</tspan></text></g><g class="technique T1497" transform="translate(0, 705.25)"><rect class="cell" height="100.75" width="149.42857142857142" fill="#c6dbef" stroke="#6B7279"/><polygon class="sidebar" transform="translate(0, 100.75)" points="0,0 12,0 12,0" fill="#6B7279" visibility="hidden"/><text font-size="9.32142857142857" fill="black"><tspan x="4" y="45.625">Virtualization/Sandbox</tspan><tspan x="4" y="60.125">Evasion</tspan></text></g></g><g class="subtechniques"><g class="subtechnique T1087.001" transform="translate(15, 201.5)"><rect class="cell" height="100.75" width="134.42857142857142" fill="#c6dbef" stroke="#6B7279"/><rect class="cell" height="100.75" width="3" transform="translate(-3, 0)" fill="#6B7279" stroke="#6B7279"/><text font-size="9.32142857142857" fill="black"><tspan x="4" y="53.875">Local Account</tspan></text></g></g><g class="tactic-label"><text font-size="12" fill="black" font-weight="bold"><tspan text-anchor="middle" x="74.71428571428571" y="53.875">Discovery</tspan></text></g></g><g class="tactic collection" transform="translate(597.7142857142857, 0)"><g class="techniques"><g class="technique T1560" transform="translate(0, 100.75)"><rect class="cell" height="100.75" width="149.42857142857142" fill="#c6dbef" stroke="#6B7279"/><polygon class="sidebar" transform="translate(0, 100.75)" points="0,0 12,0 12,0" fill="#6B7279" visibility="hidden"/><text font-size="9.32142857142857" fill="black"><tspan x="4" y="46.625">Archive</tspan><tspan x="4" y="61.125">Collected Data</tspan></text></g><g class="technique T1119" transform="translate(0, 201.5)"><rect class="cell" height="100.75" width="149.42857142857142" fill="#c6dbef" stroke="#6B7279"/><polygon class="sidebar" transform="translate(0, 100.75)" points="0,0 12,0 12,0" fill="#6B7279" visibility="hidden"/><text font-size="9.32142857142857" fill="black"><tspan x="4" y="46.625">Automated</tspan><tspan x="4" y="61.125">Collection</tspan></text></g><g class="technique T1005" transform="translate(0, 302.25)"><rect class="cell" height="100.75" width="149.42857142857142" fill="#c6dbef" stroke="#6B7279"/><polygon class="sidebar" transform="translate(0, 100.75)" points="0,0 12,0 12,0" fill="#6B7279" visibility="hidden"/><text font-size="9.32142857142857" fill="black"><tspan x="4" y="46.625">Data</tspan><tspan x="4" y="61.125">from Local System</tspan></text></g></g><g class="subtechniques"/><g class="tactic-label"><text font-size="12" fill="black" font-weight="bold"><tspan text-anchor="middle" x="74.71428571428571" y="53.875">Collection</tspan></text></g></g><g class="tactic command-and-control" transform="translate(747.1428571428571, 0)"><g class="techniques"><g class="technique T1071" transform="translate(0, 100.75)"><rect class="cell" height="100.75" width="149.42857142857142" fill="#c6dbef" stroke="#6B7279"/><polygon class="sidebar" transform="translate(0, 100.75)" points="0,0 12,0 12,0" fill="#6B7279" visibility="hidden"/><text font-size="9.32142857142857" fill="black"><tspan x="4" y="46.625">Application</tspan><tspan x="4" y="61.125">Layer Protocol</tspan></text></g><g class="technique T1132" transform="translate(0, 201.5)"><rect class="cell" height="100.75" width="149.42857142857142" fill="#c6dbef" stroke="#6B7279"/><polygon class="sidebar" transform="translate(0, 100.75)" points="0,0 12,0 12,0" fill="#6B7279" visibility="hidden"/><text font-size="9.32142857142857" fill="black"><tspan x="4" y="53.875">Data Encoding</tspan></text></g></g><g class="subtechniques"/><g class="tactic-label"><text font-size="12" fill="black" font-weight="bold"><tspan text-anchor="middle" x="74.71428571428571" y="46.625">Command</tspan><tspan text-anchor="middle" x="74.71428571428571" y="61.125">and Control</tspan></text></g></g><g class="tactic exfiltration" transform="translate(896.5714285714284, 0)"><g class="techniques"><g class="technique T1020" transform="translate(0, 100.75)"><rect class="cell" height="100.75" width="149.42857142857142" fill="#c6dbef" stroke="#6B7279"/><polygon class="sidebar" transform="translate(0, 100.75)" points="0,0 12,0 12,0" fill="#6B7279" visibility="hidden"/><text font-size="9.32142857142857" fill="black"><tspan x="4" y="46.625">Automated</tspan><tspan x="4" y="61.125">Exfiltration</tspan></text></g><g class="technique T1041" transform="translate(0, 201.5)"><rect class="cell" height="100.75" width="149.42857142857142" fill="#c6dbef" stroke="#6B7279"/><polygon class="sidebar" transform="translate(0, 100.75)" points="0,0 12,0 12,0" fill="#6B7279" visibility="hidden"/><text font-size="9.32142857142857" fill="black"><tspan x="4" y="46.625">Exfiltration</tspan><tspan x="4" y="61.125">Over C2 Channel</tspan></text></g></g><g class="subtechniques"/><g class="tactic-label"><text font-size="12" fill="black" font-weight="bold"><tspan text-anchor="middle" x="74.71428571428571" y="53.875">Exfiltration</tspan></text></g></g></g></g></g></svg>