<?xml version="1.0" standalone="no"?>
<svg width="1632" height="1056" xmlns="http://www.w3.org/2000/svg" id="svgvm0"><g transform="translate(5,5)" style="font-family: sans-serif;"><g transform="translate(0,1)"><g><g class="tactic execution" transform="translate(0, 0)"><g class="techniques"><g class="technique T1129" transform="translate(0, 95.0909090909091)"><rect class="cell" height="95.0909090909091" width="162.2" fill="#c6dbef" stroke="#6B7279"/><polygon class="sidebar" transform="translate(0, 95.0909090909091)" points="0,0 12,0 12,0" fill="#6B7279" visibility="hidden"/><text font-size="10.163181818181817" fill="black"><tspan x="4" y="51.04545454545455">Shared Modules</tspan></text></g><g class="technique T1569" transform="translate(0, 190.1818181818182)"><rect class="cell" height="95.0909090909091" width="162.2" fill="#c6dbef" stroke="#6B7279"/><polygon class="sidebar" transform="translate(0, 95.0909090909091)" points="0,0 12,0 12,0" fill="#6B7279" visibility="hidden"/><text font-size="10.163181818181817" fill="black"><tspan x="4" y="51.04545454545455">System Services</tspan></text></g></g><g class="subtechniques"/><g class="tactic-label"><text font-size="12" fill="black" font-weight="bold"><tspan text-anchor="middle" x="81.1" y="51.04545454545455">Execution</tspan></text></g></g><g class="tactic persistence" transform="translate(162.2, 0)"><g class="techniques"><g class="technique T1547" transform="translate(0, 95.0909090909091)"><rect class="cell" height="95.0909090909091" width="162.2" fill="#c6dbef" stroke="#6B7279"/><polygon class="sidebar" transform="translate(0, 95.0909090909091)" points="0,0 12,0 12,0" fill="#6B7279" visibility="hidden"/><text font-size="10.163181818181817" fill="black"><tspan x="4" y="36.378787878787875">Boot</tspan><tspan x="4" y="51.04545454545455">or Logon Autostart</tspan><tspan x="4" y="65.71212121212122">Execution</tspan></text></g></g><g class="subtechniques"/><g class="tactic-label"><text font-size="12" fill="black" font-weight="bold"><tspan text-anchor="middle" x="81.1" y="51.04545454545455">Persistence</tspan></text></g></g><g class="tactic privilege-escalation" transform="translate(324.4, 0)"><g class="techniques"><g class="technique T1548" transform="translate(0, 95.0909090909091)"><rect class="cell" height="95.0909090909091" width="162.2" fill="#c6dbef" stroke="#6B7279"/><polygon class="sidebar" transform="translate(0, 95.0909090909091)" points="0,0 12,0 12,0" fill="#6B7279" visibility="hidden"/><text font-size="10.163181818181817" fill="black"><tspan x="4" y="43.79545454545455">Abuse Elevation</tspan><tspan x="4" y="58.29545454545455">Control Mechanism</tspan></text></g><g class="technique T1547" transform="translate(0, 190.1818181818182)"><rect class="cell" height="95.0909090909091" width="162.2" fill="#c6dbef" stroke="#6B7279"/><polygon class="sidebar" transform="translate(0, 95.0909090909091)" points="0,0 12,0 12,12" fill="#6B7279" visibility="visible"/><text font-size="10.163181818181817" fill="black"><tspan x="4" y="36.378787878787875">Boot</tspan><tspan x="4" y="51.04545454545455">or Logon Autostart</tspan><tspan x="4" y="65.71212121212122">Execution</tspan></text></g><g class="technique T1055" transform="translate(0, 380.3636363636364)"><rect class="cell" height="95.0909090909091" width="162.2" fill="#c6dbef" stroke="#6B7279"/><polygon class="sidebar" transform="translate(0, 95.0909090909091)" points="0,0 12,0 12,0" fill="#6B7279" visibility="hidden"/><text font-size="10.163181818181817" fill="black"><tspan x="4" y="51.04545454545455">Process Injection</tspan></text></g></g><g class="subtechniques"><g class="subtechnique T1547.001" transform="translate(15, 285.27272727272725)"><rect class="cell" height="95.0909090909091" width="147.2" fill="#c6dbef" stroke="#6B7279"/><rect class="cell" height="95.0909090909091" width="3" transform="translate(-3, 0)" fill="#6B7279" stroke="#6B7279"/><text font-size="10.163181818181817" fill="black"><tspan x="4" y="36.378787878787875">Registry</tspan><tspan x="4" y="51.04545454545455">Run Keys</tspan><tspan x="4" y="65.71212121212122">/ Startup Folder</tspan></text></g></g><g class="tactic-label"><text font-size="12" fill="black" font-weight="bold"><tspan text-anchor="middle" x="81.1" y="43.79545454545455">Privilege</tspan><tspan text-anchor="middle" x="81.1" y="58.29545454545455">Escalation</tspan></text></g></g><g class="tactic defense-evasion" transform="translate(486.59999999999997, 0)"><g class="techniques"><g class="technique T1548" transform="translate(0, 95.0909090909091)"><rect class="cell" height="95.0909090909091" width="162.2" fill="#c6dbef" stroke="#6B7279"/><polygon class="sidebar" transform="translate(0, 95.0909090909091)" points="0,0 12,0 12,0" fill="#6B7279" visibility="hidden"/><text font-size="10.163181818181817" fill="black"><tspan x="4" y="43.79545454545455">Abuse Elevation</tspan><tspan x="4" y="58.29545454545455">Control Mechanism</tspan></text></g><g class="technique T1070" transform="translate(0, 190.1818181818182)"><rect class="cell" height="95.0909090909091" width="162.2" fill="#c6dbef" stroke="#6B7279"/><polygon class="sidebar" transform="translate(0, 95.0909090909091)" points="0,0 12,0 12,12" fill="#6B7279" visibility="visible"/><text font-size="10.163181818181817" fill="black"><tspan x="4" y="51.04545454545455">Indicator Removal</tspan></text></g><g class="technique T1202" transform="translate(0, 380.3636363636364)"><rect class="cell" height="95.0909090909091" width="162.2" fill="#c6dbef" stroke="#6B7279"/><polygon class="sidebar" transform="translate(0, 95.0909090909091)" points="0,0 12,0 12,0" fill="#6B7279" visibility="hidden"/><text font-size="10.163181818181817" fill="black"><tspan x="4" y="43.79545454545455">Indirect</tspan><tspan x="4" y="58.29545454545455">Command Execution</tspan></text></g><g class="technique T1036" transform="translate(0, 475.45454545454544)"><rect class="cell" height="95.0909090909091" width="162.2" fill="#c6dbef" stroke="#6B7279"/><polygon class="sidebar" transform="translate(0, 95.0909090909091)" points="0,0 12,0 12,0" fill="#6B7279" visibility="hidden"/><text font-size="10.163181818181817" fill="black"><tspan x="4" y="51.04545454545455">Masquerading</tspan></text></g><g class="technique T1027" transform="translate(0, 570.5454545454545)"><rect class="cell" height="95.0909090909091" width="162.2" fill="#c6dbef" stroke="#6B7279"/><polygon class="sidebar" transform="translate(0, 95.0909090909091)" points="0,0 12,0 12,12" fill="#6B7279" visibility="visible"/><text font-size="10.163181818181817" fill="black"><tspan x="4" y="43.79545454545455">Obfuscated Files</tspan><tspan x="4" y="58.29545454545455">or Information</tspan></text></g><g class="technique T1055" transform="translate(0, 760.7272727272727)"><rect class="cell" height="95.0909090909091" width="162.2" fill="#c6dbef" stroke="#6B7279"/><polygon class="sidebar" transform="translate(0, 95.0909090909091)" points="0,0 12,0 12,0" fill="#6B7279" visibility="hidden"/><text font-size="10.163181818181817" fill="black"><tspan x="4" y="51.04545454545455">Process Injection</tspan></text></g><g class="technique T1497" transform="translate(0, 855.8181818181819)"><rect class="cell" height="95.0909090909091" width="162.2" fill="#c6dbef" stroke="#6B7279"/><polygon class="sidebar" transform="translate(0, 95.0909090909091)" points="0,0 12,0 12,12" fill="#6B7279" visibility="visible"/><text font-size="10.163181818181817" fill="black"><tspan x="4" y="43.79545454545455">Virtualization/Sandbox</tspan><tspan x="4" y="58.29545454545455">Evasion</tspan></text></g></g><g class="subtechniques"><g class="subtechnique T1070.004" transform="translate(15, 285.27272727272725)"><rect class="cell" height="95.0909090909091" width="147.2" fill="#c6dbef" stroke="#6B7279"/><rect class="cell" height="95.0909090909091" width="3" transform="translate(-3, 0)" fill="#6B7279" stroke="#6B7279"/><text font-size="10.163181818181817" fill="black"><tspan x="4" y="51.04545454545455">File Deletion</tspan></text></g><g class="subtechnique T1027.005" transform="translate(15, 665.6363636363636)"><rect class="cell" height="95.0909090909091" width="147.2" fill="#c6dbef" stroke="#6B7279"/><rect class="cell" height="95.0909090909091" width="3" transform="translate(-3, 0)" fill="#6B7279" stroke="#6B7279"/><text font-size="10.163181818181817" fill="black"><tspan x="4" y="36.378787878787875">Indicator</tspan><tspan x="4" y="51.04545454545455">Removal</tspan><tspan x="4" y="65.71212121212122">from Tools</tspan></text></g><g class="subtechnique T1497.001" transform="translate(15, 950.9090909090909)"><rect class="cell" height="95.0909090909091" width="147.2" fill="#c6dbef" stroke="#6B7279"/><rect class="cell" height="95.0909090909091" width="3" transform="translate(-3, 0)" fill="#6B7279" stroke="#6B7279"/><text font-size="10.163181818181817" fill="black"><tspan x="4" y="51.04545454545455">System Checks</tspan></text></g></g><g class="tactic-label"><text font-size="12" fill="black" font-weight="bold"><tspan text-anchor="middle" x="81.1" y="51.04545454545455">Defense Evasion</tspan></text></g></g><g class="tactic credential-access" transform="translate(648.8, 0)"><g class="techniques"><g class="technique T1056" transform="translate(0, 95.0909090909091)"><rect class="cell" height="95.0909090909091" width="162.2" fill="#c6dbef" stroke="#6B7279"/><polygon class="sidebar" transform="translate(0, 95.0909090909091)" points="0,0 12,0 12,0" fill="#6B7279" visibility="hidden"/><text font-size="10.163181818181817" fill="black"><tspan x="4" y="51.04545454545455">Input Capture</tspan></text></g></g><g class="subtechniques"/><g class="tactic-label"><text font-size="12" fill="black" font-weight="bold"><tspan text-anchor="middle" x="81.1" y="51.04545454545455">Credential Access</tspan></text></g></g><g class="tactic discovery" transform="translate(811, 0)"><g class="techniques"><g class="technique T1083" transform="translate(0, 95.0909090909091)"><rect class="cell" height="95.0909090909091" width="162.2" fill="#c6dbef" stroke="#6B7279"/><polygon class="sidebar" transform="translate(0, 95.0909090909091)" points="0,0 12,0 12,0" fill="#6B7279" visibility="hidden"/><text font-size="10.163181818181817" fill="black"><tspan x="4" y="43.79545454545455">File and Directory</tspan><tspan x="4" y="58.29545454545455">Discovery</tspan></text></g><g class="technique T1518" transform="translate(0, 190.1818181818182)"><rect class="cell" height="95.0909090909091" width="162.2" fill="#c6dbef" stroke="#6B7279"/><polygon class="sidebar" transform="translate(0, 95.0909090909091)" points="0,0 12,0 12,12" fill="#6B7279" visibility="visible"/><text font-size="10.163181818181817" fill="black"><tspan x="4" y="51.04545454545455">Software Discovery</tspan></text></g><g class="technique T1082" transform="translate(0, 380.3636363636364)"><rect class="cell" height="95.0909090909091" width="162.2" fill="#c6dbef" stroke="#6B7279"/><polygon class="sidebar" transform="translate(0, 95.0909090909091)" points="0,0 12,0 12,0" fill="#6B7279" visibility="hidden"/><text font-size="10.163181818181817" fill="black"><tspan x="4" y="43.79545454545455">System Information</tspan><tspan x="4" y="58.29545454545455">Discovery</tspan></text></g><g class="technique T1497" transform="translate(0, 475.45454545454544)"><rect class="cell" height="95.0909090909091" width="162.2" fill="#c6dbef" stroke="#6B7279"/><polygon class="sidebar" transform="translate(0, 95.0909090909091)" points="0,0 12,0 12,12" fill="#6B7279" visibility="visible"/><text font-size="10.163181818181817" fill="black"><tspan x="4" y="43.79545454545455">Virtualization/Sandbox</tspan><tspan x="4" y="58.29545454545455">Evasion</tspan></text></g></g><g class="subtechniques"><g class="subtechnique T1518.001" transform="translate(15, 285.27272727272725)"><rect class="cell" height="95.0909090909091" width="147.2" fill="#c6dbef" stroke="#6B7279"/><rect class="cell" height="95.0909090909091" width="3" transform="translate(-3, 0)" fill="#6B7279" stroke="#6B7279"/><text font-size="10.163181818181817" fill="black"><tspan x="4" y="36.378787878787875">Security</tspan><tspan x="4" y="51.04545454545455">Software</tspan><tspan x="4" y="65.71212121212122">Discovery</tspan></text></g><g class="subtechnique T1497.001" transform="translate(15, 570.5454545454545)"><rect class="cell" height="95.0909090909091" width="147.2" fill="#c6dbef" stroke="#6B7279"/><rect class="cell" height="95.0909090909091" width="3" transform="translate(-3, 0)" fill="#6B7279" stroke="#6B7279"/><text font-size="10.163181818181817" fill="black"><tspan x="4" y="51.04545454545455">System Checks</tspan></text></g></g><g class="tactic-label"><text font-size="12" fill="black" font-weight="bold"><tspan text-anchor="middle" x="81.1" y="51.04545454545455">Discovery</tspan></text></g></g><g class="tactic lateral-movement" transform="translate(973.1999999999999, 0)"><g class="techniques"><g class="technique T1080" transform="translate(0, 95.0909090909091)"><rect class="cell" height="95.0909090909091" width="162.2" fill="#c6dbef" stroke="#6B7279"/><polygon class="sidebar" transform="translate(0, 95.0909090909091)" points="0,0 12,0 12,0" fill="#6B7279" visibility="hidden"/><text font-size="10.163181818181817" fill="black"><tspan x="4" y="43.79545454545455">Taint</tspan><tspan x="4" y="58.29545454545455">Shared Content</tspan></text></g></g><g class="subtechniques"/><g class="tactic-label"><text font-size="12" fill="black" font-weight="bold"><tspan text-anchor="middle" x="81.1" y="51.04545454545455">Lateral Movement</tspan></text></g></g><g class="tactic collection" transform="translate(1135.3999999999999, 0)"><g class="techniques"><g class="technique T1056" transform="translate(0, 95.0909090909091)"><rect class="cell" height="95.0909090909091" width="162.2" fill="#c6dbef" stroke="#6B7279"/><polygon class="sidebar" transform="translate(0, 95.0909090909091)" points="0,0 12,0 12,0" fill="#6B7279" visibility="hidden"/><text font-size="10.163181818181817" fill="black"><tspan x="4" y="51.04545454545455">Input Capture</tspan></text></g></g><g class="subtechniques"/><g class="tactic-label"><text font-size="12" fill="black" font-weight="bold"><tspan text-anchor="middle" x="81.1" y="51.04545454545455">Collection</tspan></text></g></g><g class="tactic command-and-control" transform="translate(1297.6, 0)"><g class="techniques"><g class="technique T1071" transform="translate(0, 95.0909090909091)"><rect class="cell" height="95.0909090909091" width="162.2" fill="#c6dbef" stroke="#6B7279"/><polygon class="sidebar" transform="translate(0, 95.0909090909091)" points="0,0 12,0 12,0" fill="#6B7279" visibility="hidden"/><text font-size="10.163181818181817" fill="black"><tspan x="4" y="43.79545454545455">Application</tspan><tspan x="4" y="58.29545454545455">Layer Protocol</tspan></text></g><g class="technique T1105" transform="translate(0, 190.1818181818182)"><rect class="cell" height="95.0909090909091" width="162.2" fill="#c6dbef" stroke="#6B7279"/><polygon class="sidebar" transform="translate(0, 95.0909090909091)" points="0,0 12,0 12,0" fill="#6B7279" visibility="hidden"/><text font-size="10.163181818181817" fill="black"><tspan x="4" y="43.79545454545455">Ingress</tspan><tspan x="4" y="58.29545454545455">Tool Transfer</tspan></text></g><g class="technique T1090" transform="translate(0, 285.27272727272725)"><rect class="cell" height="95.0909090909091" width="162.2" fill="#c6dbef" stroke="#6B7279"/><polygon class="sidebar" transform="translate(0, 95.0909090909091)" points="0,0 12,0 12,0" fill="#6B7279" visibility="hidden"/><text font-size="10.163181818181817" fill="black"><tspan x="4" y="51.04545454545455">Proxy</tspan></text></g></g><g class="subtechniques"/><g class="tactic-label"><text font-size="12" fill="black" font-weight="bold"><tspan text-anchor="middle" x="81.1" y="43.79545454545455">Command</tspan><tspan text-anchor="middle" x="81.1" y="58.29545454545455">and Control</tspan></text></g></g><g class="tactic impact" transform="translate(1459.8, 0)"><g class="techniques"><g class="technique T1486" transform="translate(0, 95.0909090909091)"><rect class="cell" height="95.0909090909091" width="162.2" fill="#c6dbef" stroke="#6B7279"/><polygon class="sidebar" transform="translate(0, 95.0909090909091)" points="0,0 12,0 12,0" fill="#6B7279" visibility="hidden"/><text font-size="10.163181818181817" fill="black"><tspan x="4" y="43.79545454545455">Data Encrypted</tspan><tspan x="4" y="58.29545454545455">for Impact</tspan></text></g><g class="technique T1490" transform="translate(0, 190.1818181818182)"><rect class="cell" height="95.0909090909091" width="162.2" fill="#c6dbef" stroke="#6B7279"/><polygon class="sidebar" transform="translate(0, 95.0909090909091)" points="0,0 12,0 12,0" fill="#6B7279" visibility="hidden"/><text font-size="10.163181818181817" fill="black"><tspan x="4" y="43.79545454545455">Inhibit</tspan><tspan x="4" y="58.29545454545455">System Recovery</tspan></text></g></g><g class="subtechniques"/><g class="tactic-label"><text font-size="12" fill="black" font-weight="bold"><tspan text-anchor="middle" x="81.1" y="51.04545454545455">Impact</tspan></text></g></g></g></g></g></svg>