<?xml version="1.0" standalone="no"?>
<svg width="1056" height="816" xmlns="http://www.w3.org/2000/svg" id="svgvm0"><g transform="translate(5,5)" style="font-family: sans-serif;"><g transform="translate(0,1)"><g><g class="tactic persistence" transform="translate(0, 0)"><g class="techniques"><g class="technique T1547" transform="translate(0, 268.66666666666663)"><rect class="cell" height="268.66666666666663" width="261.5" fill="#d9d9d9" stroke="#6B7279"/><polygon class="sidebar" transform="translate(0, 268.66666666666663)" points="0,0 12,0 12,0" fill="#6B7279" visibility="hidden"/><text font-size="12" fill="black"><tspan x="4" y="130.58333333333331">Boot</tspan><tspan x="4" y="145.08333333333331">or Logon Autostart Execution</tspan></text></g></g><g class="subtechniques"/><g class="tactic-label"><text font-size="12" fill="black" font-weight="bold"><tspan text-anchor="middle" x="130.75" y="137.83333333333331">Persistence</tspan></text></g></g><g class="tactic discovery" transform="translate(261.5, 0)"><g class="techniques"><g class="technique T1016" transform="translate(0, 268.66666666666663)"><rect class="cell" height="268.66666666666663" width="261.5" fill="#d9d9d9" stroke="#6B7279"/><polygon class="sidebar" transform="translate(0, 268.66666666666663)" points="0,0 12,0 12,0" fill="#6B7279" visibility="hidden"/><text font-size="12" fill="black"><tspan x="4" y="130.58333333333331">System Network</tspan><tspan x="4" y="145.08333333333331">Configuration Discovery</tspan></text></g><g class="technique T1049" transform="translate(0, 537.3333333333333)"><rect class="cell" height="268.66666666666663" width="261.5" fill="#d9d9d9" stroke="#6B7279"/><polygon class="sidebar" transform="translate(0, 268.66666666666663)" points="0,0 12,0 12,0" fill="#6B7279" visibility="hidden"/><text font-size="12" fill="black"><tspan x="4" y="130.58333333333331">System</tspan><tspan x="4" y="145.08333333333331">Network Connections Discovery</tspan></text></g></g><g class="subtechniques"/><g class="tactic-label"><text font-size="12" fill="black" font-weight="bold"><tspan text-anchor="middle" x="130.75" y="137.83333333333331">Discovery</tspan></text></g></g><g class="tactic command-and-control" transform="translate(523, 0)"><g class="techniques"><g class="technique T1071" transform="translate(0, 268.66666666666663)"><rect class="cell" height="268.66666666666663" width="261.5" fill="#d9d9d9" stroke="#6B7279"/><polygon class="sidebar" transform="translate(0, 268.66666666666663)" points="0,0 12,0 12,0" fill="#6B7279" visibility="hidden"/><text font-size="12" fill="black"><tspan x="4" y="137.83333333333331">Application Layer Protocol</tspan></text></g></g><g class="subtechniques"/><g class="tactic-label"><text font-size="12" fill="black" font-weight="bold"><tspan text-anchor="middle" x="130.75" y="137.83333333333331">Command and Control</tspan></text></g></g><g class="tactic impact" transform="translate(784.5, 0)"><g class="techniques"><g class="technique T1499" transform="translate(0, 268.66666666666663)"><rect class="cell" height="268.66666666666663" width="261.5" fill="#d9d9d9" stroke="#6B7279"/><polygon class="sidebar" transform="translate(0, 268.66666666666663)" points="0,0 12,0 12,0" fill="#6B7279" visibility="hidden"/><text font-size="12" fill="black"><tspan x="4" y="137.83333333333331">Endpoint Denial of Service</tspan></text></g><g class="technique T1498" transform="translate(0, 537.3333333333333)"><rect class="cell" height="268.66666666666663" width="261.5" fill="#d9d9d9" stroke="#6B7279"/><polygon class="sidebar" transform="translate(0, 268.66666666666663)" points="0,0 12,0 12,0" fill="#6B7279" visibility="hidden"/><text font-size="12" fill="black"><tspan x="4" y="137.83333333333331">Network Denial of Service</tspan></text></g></g><g class="subtechniques"/><g class="tactic-label"><text font-size="12" fill="black" font-weight="bold"><tspan text-anchor="middle" x="130.75" y="137.83333333333331">Impact</tspan></text></g></g></g></g></g></svg>